<?xml version="1.0" encoding="utf-8"?>
<!-- Generator: Adobe Illustrator 22.0.1, SVG Export Plug-In . SVG Version: 6.00 Build 0)  -->
<svg version="1.1" id="Capa_1" xmlns="http://www.w3.org/2000/svg" xmlns:xlink="http://www.w3.org/1999/xlink" x="0px" y="0px"
	 viewBox="0 0 512 512" style="enable-background:new 0 0 512 512;" xml:space="preserve">
<style type="text/css">
	.st0{fill:#ED1515;}
</style>
<path class="st0" d="M191.8,480.6V306.3L14.5,42.8C7.3,34.5,10.4,11.7,31.4,11h449.2c12.2,0,27.7,14.4,16.9,31.8L320.2,306.3v108.2
	c0,6.4-3,12.4-8.1,16.3l-87.6,66.1C219.5,502.5,194.4,506.2,191.8,480.6z M69.8,51.8l159.4,236.9c2.3,3.4,3.5,7.3,3.5,11.4v139.6
	l46.8-35.3V300.1c0-4.1,1.2-8,3.5-11.4L442.2,51.8L69.8,51.8L69.8,51.8z"/>
</svg>
